<svg width="508" height="76" viewBox="0 0 508 76" fill="none" xmlns="http://www.w3.org/2000/svg">
<path d="M3.57262 45.4208V0.275649H12.9258V17.4884H30.5896V0.275649H39.9735V45.4208H30.5896V25.2678H12.9258V45.4208H3.57262Z" fill="white"/>
<path d="M66.7452 29.1882C66.1932 29.5353 65.631 29.8211 65.0585 30.0457C64.5066 30.2499 63.7399 30.4439 62.7586 30.6277L60.7959 30.9952C58.956 31.3219 57.6373 31.7201 56.84 32.1897C55.4907 32.986 54.816 34.2213 54.816 35.8956C54.816 37.3862 55.2249 38.4683 56.0427 39.1422C56.8809 39.7955 57.8929 40.1222 59.0786 40.1222C60.9595 40.1222 62.687 39.5709 64.2612 38.4683C65.8559 37.3658 66.6839 35.3545 66.7452 32.4347V29.1882ZM61.4399 25.1147C63.055 24.9105 64.2101 24.6553 64.9052 24.349C66.1523 23.8181 66.7759 22.9912 66.7759 21.8682C66.7759 20.5001 66.2954 19.5609 65.3345 19.0504C64.3941 18.5195 63.0039 18.2541 61.1639 18.2541C59.0991 18.2541 57.6373 18.7646 56.7786 19.7855C56.1653 20.541 55.7564 21.5619 55.552 22.8482H47.1188C47.3028 19.9284 48.1205 17.5292 49.5721 15.6507C51.8823 12.7105 55.8484 11.2404 61.4706 11.2404C65.1301 11.2404 68.3807 11.9652 71.2225 13.4149C74.0642 14.8646 75.4851 17.6007 75.4851 21.6231V36.937C75.4851 37.9987 75.5055 39.2851 75.5464 40.7961C75.6077 41.9395 75.7815 42.7154 76.0677 43.1238C76.354 43.5321 76.7833 43.869 77.3557 44.1345V45.4208H67.8492C67.5834 44.747 67.3994 44.114 67.2972 43.5219C67.195 42.9298 67.1132 42.256 67.0519 41.5005C65.8456 42.8073 64.4554 43.9201 62.8812 44.8389C61.0004 45.9211 58.8742 46.4622 56.5027 46.4622C53.4769 46.4622 50.9725 45.6046 48.9894 43.8894C47.0268 42.1539 46.0454 39.7037 46.0454 36.5388C46.0454 32.4347 47.6299 29.4638 50.7987 27.6262C52.5365 26.6257 55.092 25.911 58.4653 25.4822L61.4399 25.1147Z" fill="white"/>
<path d="M92.1982 45.4208H83.4583V0.275649H92.1982V45.4208Z" fill="white"/>
<path d="M115.75 39.2647C118.305 39.2647 120.268 38.356 121.638 36.5388C123.008 34.7216 123.693 32.1386 123.693 28.79C123.693 25.4414 123.008 22.8687 121.638 21.0718C120.268 19.2546 118.305 18.346 115.75 18.346C113.194 18.346 111.222 19.2546 109.831 21.0718C108.462 22.8687 107.777 25.4414 107.777 28.79C107.777 32.1386 108.462 34.7216 109.831 36.5388C111.222 38.356 113.194 39.2647 115.75 39.2647ZM132.862 28.79C132.862 33.6904 131.451 37.8864 128.63 41.378C125.808 44.8491 121.525 46.5847 115.781 46.5847C110.036 46.5847 105.753 44.8491 102.931 41.378C100.11 37.8864 98.6995 33.6904 98.6995 28.79C98.6995 23.9713 100.11 19.7957 102.931 16.2633C105.753 12.7309 110.036 10.9647 115.781 10.9647C121.525 10.9647 125.808 12.7309 128.63 16.2633C131.451 19.7957 132.862 23.9713 132.862 28.79Z" fill="white"/>
<path d="M149.023 8.11633V18.0703H160.124C162.107 18.0703 163.712 17.7028 164.939 16.9677C166.186 16.2122 166.809 14.885 166.809 12.9861C166.809 10.883 165.992 9.49458 164.356 8.82077C162.945 8.35114 161.146 8.11633 158.959 8.11633H149.023ZM149.023 25.5435V37.5801H160.124C162.107 37.5801 163.651 37.3147 164.755 36.7838C166.758 35.8037 167.76 33.9252 167.76 31.1483C167.76 28.8002 166.789 27.1872 164.847 26.3092C163.763 25.8191 162.24 25.5639 160.277 25.5435H149.023ZM161.964 0.275649C167.504 0.357323 171.43 1.96017 173.74 5.08419C175.13 7.00353 175.825 9.3006 175.825 11.9754C175.825 14.7319 175.13 16.9473 173.74 18.6216C172.963 19.5609 171.818 20.4184 170.305 21.1943C172.615 22.0315 174.353 23.3587 175.519 25.1759C176.704 26.9932 177.297 29.1984 177.297 31.7915C177.297 34.4663 176.623 36.8655 175.273 38.989C174.415 40.3979 173.341 41.5822 172.053 42.5418C170.602 43.6444 168.884 44.3999 166.901 44.8083C164.939 45.2166 162.802 45.4208 160.492 45.4208H140.007V0.275649H161.964Z" fill="white"/>
<path d="M193.52 8.05508H184.657V0H193.52V8.05508ZM184.657 12.0367H193.52V45.4208H184.657V12.0367Z" fill="white"/>
<path d="M214.342 11.2404C216.366 11.2404 218.165 11.6896 219.739 12.588C221.314 13.466 222.591 14.6911 223.573 16.2633V0.336904H232.435V45.4208H223.941V40.7961C222.694 42.7766 221.273 44.2161 219.678 45.1146C218.083 46.013 216.1 46.4622 213.729 46.4622C209.824 46.4622 206.532 44.8899 203.854 41.7455C201.196 38.5807 199.868 34.5276 199.868 29.5863C199.868 23.8896 201.176 19.4077 203.793 16.1408C206.43 12.8738 209.947 11.2404 214.342 11.2404ZM216.243 39.1115C218.717 39.1115 220.598 38.1927 221.886 36.355C223.174 34.5174 223.818 32.1386 223.818 29.2188C223.818 25.1351 222.786 22.2153 220.721 20.4593C219.453 19.3975 217.981 18.8666 216.305 18.8666C213.749 18.8666 211.868 19.8365 210.662 21.7763C209.476 23.6956 208.883 26.0846 208.883 28.9431C208.883 32.0263 209.487 34.497 210.693 36.355C211.919 38.1927 213.77 39.1115 216.243 39.1115Z" fill="white"/>
<path d="M258.839 29.1882C258.287 29.5353 257.725 29.8211 257.152 30.0457C256.6 30.2499 255.834 30.4439 254.852 30.6277L252.89 30.9952C251.05 31.3219 249.731 31.7201 248.934 32.1897C247.584 32.986 246.91 34.2213 246.91 35.8956C246.91 37.3862 247.319 38.4683 248.136 39.1422C248.975 39.7955 249.987 40.1222 251.172 40.1222C253.053 40.1222 254.781 39.5709 256.355 38.4683C257.95 37.3658 258.778 35.3545 258.839 32.4347V29.1882ZM253.534 25.1147C255.149 24.9105 256.304 24.6553 256.999 24.349C258.246 23.8181 258.87 22.9912 258.87 21.8682C258.87 20.5001 258.389 19.5609 257.428 19.0504C256.488 18.5195 255.098 18.2541 253.258 18.2541C251.193 18.2541 249.731 18.7646 248.872 19.7855C248.259 20.541 247.85 21.5619 247.646 22.8482H239.212C239.396 19.9284 240.214 17.5292 241.666 15.6507C243.976 12.7105 247.942 11.2404 253.564 11.2404C257.224 11.2404 260.474 11.9652 263.316 13.4149C266.158 14.8646 267.579 17.6007 267.579 21.6231V36.937C267.579 37.9987 267.599 39.2851 267.64 40.7961C267.701 41.9395 267.875 42.7154 268.161 43.1238C268.448 43.5321 268.877 43.869 269.449 44.1345V45.4208H259.943C259.677 44.747 259.493 44.114 259.391 43.5219C259.289 42.9298 259.207 42.256 259.146 41.5005C257.939 42.8073 256.549 43.9201 254.975 44.8389C253.094 45.9211 250.968 46.4622 248.596 46.4622C245.571 46.4622 243.066 45.6046 241.083 43.8894C239.12 42.1539 238.139 39.7037 238.139 36.5388C238.139 32.4347 239.724 29.4638 242.892 27.6262C244.63 26.6257 247.186 25.911 250.559 25.4822L253.534 25.1147Z" fill="white"/>
<path d="M293.89 11.2404C297.346 11.2404 300.167 12.149 302.354 13.9662C304.562 15.763 305.666 18.7543 305.666 22.9401V45.4208H296.712V25.1147C296.712 23.3587 296.477 22.0111 296.006 21.0718C295.148 19.3567 293.512 18.4991 291.1 18.4991C288.135 18.4991 286.101 19.7548 284.997 22.2663C284.425 23.5935 284.139 25.2882 284.139 27.3505V45.4208H275.429V12.0979H283.863V16.9677C284.987 15.2526 286.05 14.0173 287.052 13.2618C288.851 11.9142 291.13 11.2404 293.89 11.2404Z" fill="white"/>
<path d="M8.75267 56.2196C11.1293 56.2196 12.9735 56.845 14.2854 58.0956C15.5972 59.3462 16.3255 60.767 16.4704 62.3579H13.9915C13.7104 61.1498 13.1482 60.1927 12.3049 59.4866C11.47 58.7804 10.2945 58.4274 8.77823 58.4274C6.92973 58.4274 5.43475 59.0782 4.29328 60.3799C3.16033 61.6731 2.59386 63.6596 2.59386 66.3395C2.59386 68.5345 3.10496 70.3169 4.12717 71.6866C5.1579 73.0478 6.69122 73.7285 8.72712 73.7285C10.6012 73.7285 12.028 73.0096 13.0076 71.5718C13.5272 70.8146 13.9148 69.8192 14.1704 68.5856H16.6492C16.4278 70.5593 15.6952 72.2141 14.4515 73.5498C12.9608 75.1577 10.9504 75.9617 8.42045 75.9617C6.23974 75.9617 4.40828 75.3024 2.92608 73.9837C0.975359 72.2396 0 69.5469 0 65.9056C0 63.1406 0.732584 60.8733 2.19775 59.1037C3.78218 57.181 5.96715 56.2196 8.75267 56.2196Z" fill="white"/>
<path d="M21.2109 71.8397C21.2109 72.5033 21.4536 73.0266 21.9392 73.4094C22.4247 73.7923 22.9997 73.9837 23.6642 73.9837C24.4734 73.9837 25.2571 73.7965 26.0152 73.4222C27.293 72.8011 27.9319 71.7844 27.9319 70.3722V68.5218C27.6508 68.7004 27.2887 68.8493 26.8458 68.9684C26.4028 69.0875 25.9684 69.1726 25.5425 69.2236L24.1497 69.4023C23.3149 69.5129 22.6888 69.6873 22.2714 69.9255C21.5644 70.3254 21.2109 70.9635 21.2109 71.8397ZM26.7819 67.1945C27.31 67.1265 27.6636 66.9053 27.8424 66.531C27.9447 66.3268 27.9958 66.0332 27.9958 65.6504C27.9958 64.8677 27.7147 64.3019 27.1525 63.9531C26.5988 63.5958 25.8023 63.4171 24.763 63.4171C23.5619 63.4171 22.7101 63.7404 22.2075 64.387C21.9264 64.7443 21.7433 65.2761 21.6581 65.9822H19.5114C19.554 64.2977 20.0992 63.1279 21.147 62.4728C22.2033 61.8092 23.4256 61.4774 24.8141 61.4774C26.4241 61.4774 27.7317 61.7837 28.7369 62.3962C29.7335 63.0088 30.2319 63.9616 30.2319 65.2548V73.1287C30.2319 73.3669 30.2787 73.5583 30.3724 73.7029C30.4746 73.8476 30.6833 73.9199 30.9985 73.9199C31.1007 73.9199 31.2157 73.9156 31.3435 73.9071C31.4713 73.8901 31.6076 73.8688 31.7524 73.8433V75.5406C31.3946 75.6427 31.122 75.7065 30.9346 75.732C30.7472 75.7575 30.4917 75.7703 30.168 75.7703C29.3758 75.7703 28.8008 75.4895 28.443 74.928C28.2556 74.6303 28.1235 74.2091 28.0469 73.6646C27.5784 74.2772 26.9054 74.8089 26.028 75.2598C25.1506 75.7107 24.1838 75.9362 23.1275 75.9362C21.8583 75.9362 20.819 75.5534 20.0098 74.7877C19.209 74.0135 18.8087 73.0478 18.8087 71.8908C18.8087 70.6231 19.2048 69.6405 19.997 68.9429C20.7892 68.2452 21.8284 67.8156 23.1147 67.654L26.7819 67.1945Z" fill="white"/>
<path d="M34.0779 61.8092H36.2629V64.1701C36.4418 63.7107 36.8805 63.1534 37.579 62.4983C38.2775 61.8347 39.0825 61.5029 39.994 61.5029C40.0366 61.5029 40.109 61.5072 40.2112 61.5157C40.3134 61.5242 40.488 61.5412 40.7351 61.5667V63.9914C40.5988 63.9659 40.471 63.9489 40.3517 63.9404C40.241 63.9319 40.1175 63.9276 39.9812 63.9276C38.8227 63.9276 37.9325 64.3019 37.3107 65.0506C36.6888 65.7908 36.3779 66.6458 36.3779 67.6157V75.4768H34.0779V61.8092Z" fill="white"/>
<path d="M42.7284 61.873H45.0667V75.4768H42.7284V61.873ZM42.7284 56.7301H45.0667V59.3334H42.7284V56.7301Z" fill="white"/>
<path d="M57.2054 71.1889C57.2736 71.9546 57.4652 72.5416 57.7804 72.95C58.3597 73.6902 59.3648 74.0602 60.7959 74.0602C61.6478 74.0602 62.3974 73.8773 63.0448 73.5115C63.6922 73.1372 64.0159 72.5629 64.0159 71.7887C64.0159 71.2017 63.7561 70.755 63.2365 70.4487C62.9042 70.2616 62.2483 70.0446 61.2687 69.7979L59.4415 69.3385C58.2745 69.0492 57.4141 68.7259 56.8604 68.3686C55.8723 67.7476 55.3782 66.8883 55.3782 65.7908C55.3782 64.4976 55.8425 63.4512 56.771 62.6514C57.708 61.8517 58.9645 61.4519 60.5404 61.4519C62.6018 61.4519 64.0883 62.0559 64.9998 63.264C65.5705 64.0297 65.8474 64.8549 65.8303 65.7397H63.6581C63.6155 65.2208 63.4324 64.7486 63.1087 64.3232C62.5805 63.7192 61.6648 63.4171 60.3615 63.4171C59.4926 63.4171 58.8324 63.583 58.381 63.9148C57.938 64.2466 57.7165 64.6848 57.7165 65.2293C57.7165 65.8248 58.0104 66.3012 58.5982 66.6586C58.9389 66.8713 59.4415 67.0584 60.1059 67.2201L61.6265 67.5902C63.279 67.99 64.3864 68.3771 64.9487 68.7515C65.8431 69.3385 66.2903 70.2616 66.2903 71.5207C66.2903 72.7373 65.8261 73.788 64.8976 74.6728C63.9776 75.5576 62.572 76 60.6809 76C58.645 76 57.2012 75.5406 56.3493 74.6218C55.506 73.6944 55.0545 72.5501 54.9949 71.1889H57.2054Z" fill="white"/>
<path d="M74.353 73.9964C75.8778 73.9964 76.9213 73.4222 77.4835 72.2736C78.0542 71.1166 78.3396 69.8319 78.3396 68.4197C78.3396 67.1435 78.1352 66.1056 77.7263 65.3058C77.0789 64.0467 75.963 63.4171 74.3785 63.4171C72.973 63.4171 71.9508 63.9531 71.3119 65.0251C70.673 66.0971 70.3536 67.3902 70.3536 68.9046C70.3536 70.3594 70.673 71.5718 71.3119 72.5416C71.9508 73.5115 72.9645 73.9964 74.353 73.9964ZM74.4424 61.4136C76.2057 61.4136 77.6965 62.0006 78.9146 63.1747C80.1327 64.3487 80.7418 66.0758 80.7418 68.3559C80.7418 70.5593 80.2051 72.38 79.1318 73.8178C78.0585 75.2556 76.3932 75.9745 74.1358 75.9745C72.2532 75.9745 70.7582 75.3407 69.6508 74.073C68.5434 72.7969 67.9897 71.0868 67.9897 68.9429C67.9897 66.6458 68.5732 64.8167 69.7403 63.4554C70.9073 62.0942 72.4747 61.4136 74.4424 61.4136Z" fill="white"/>
<path d="M83.5529 56.7301H85.8529V75.4768H83.5529V56.7301Z" fill="white"/>
<path d="M91.6156 61.8092V70.8826C91.6156 71.5803 91.7263 72.1503 91.9478 72.5927C92.3567 73.4094 93.1191 73.8178 94.235 73.8178C95.8364 73.8178 96.9268 73.1031 97.506 71.6738C97.8212 70.9082 97.9788 69.8575 97.9788 68.5218V61.8092H100.279V75.4768H98.1066L98.1321 73.4605C97.834 73.9794 97.4635 74.4176 97.0205 74.7749C96.1431 75.4895 95.0783 75.8469 93.8261 75.8469C91.8754 75.8469 90.5465 75.196 89.8395 73.8943C89.4561 73.1967 89.2645 72.2651 89.2645 71.0996V61.8092H91.6156Z" fill="white"/>
<path d="M105.249 71.1889C105.317 71.9546 105.509 72.5416 105.824 72.95C106.404 73.6902 107.409 74.0602 108.84 74.0602C109.692 74.0602 110.441 73.8773 111.089 73.5115C111.736 73.1372 112.06 72.5629 112.06 71.7887C112.06 71.2017 111.8 70.755 111.28 70.4487C110.948 70.2616 110.292 70.0446 109.313 69.7979L107.485 69.3385C106.318 69.0492 105.458 68.7259 104.904 68.3686C103.916 67.7476 103.422 66.8883 103.422 65.7908C103.422 64.4976 103.886 63.4512 104.815 62.6514C105.752 61.8517 107.008 61.4519 108.584 61.4519C110.646 61.4519 112.132 62.0559 113.044 63.264C113.614 64.0297 113.891 64.8549 113.874 65.7397H111.702C111.659 65.2208 111.476 64.7486 111.153 64.3232C110.624 63.7192 109.709 63.4171 108.405 63.4171C107.536 63.4171 106.876 63.583 106.425 63.9148C105.982 64.2466 105.76 64.6848 105.76 65.2293C105.76 65.8248 106.054 66.3012 106.642 66.6586C106.983 66.8713 107.485 67.0584 108.15 67.2201L109.67 67.5902C111.323 67.99 112.43 68.3771 112.993 68.7515C113.887 69.3385 114.334 70.2616 114.334 71.5207C114.334 72.7373 113.87 73.788 112.941 74.6728C112.021 75.5576 110.616 76 108.725 76C106.689 76 105.245 75.5406 104.393 74.6218C103.55 73.6944 103.098 72.5501 103.039 71.1889H105.249Z" fill="white"/>
<path d="M116.966 61.873H119.305V75.4768H116.966V61.873ZM116.966 56.7301H119.305V59.3334H116.966V56.7301Z" fill="white"/>
<path d="M130.076 61.8092H132.351V63.7489C132.896 63.0768 133.39 62.5876 133.833 62.2814C134.591 61.7624 135.451 61.5029 136.414 61.5029C137.504 61.5029 138.382 61.7709 139.046 62.3069C139.421 62.6132 139.762 63.0641 140.068 63.6596C140.579 62.9279 141.18 62.3877 141.87 62.0389C142.56 61.6816 143.335 61.5029 144.195 61.5029C146.035 61.5029 147.288 62.1665 147.952 63.4937C148.31 64.2084 148.489 65.1697 148.489 66.3778V75.4768H146.099V65.9822C146.099 65.0719 145.869 64.4466 145.409 64.1063C144.958 63.766 144.404 63.5958 143.748 63.5958C142.845 63.5958 142.066 63.8978 141.41 64.5019C140.763 65.1059 140.439 66.1141 140.439 67.5264V75.4768H138.101V66.5565C138.101 65.6291 137.99 64.9528 137.768 64.5274C137.419 63.8893 136.767 63.5703 135.813 63.5703C134.944 63.5703 134.152 63.9063 133.437 64.5784C132.73 65.2505 132.376 66.4671 132.376 68.2282V75.4768H130.076V61.8092Z" fill="white"/>
<path d="M153.638 71.8397C153.638 72.5033 153.881 73.0266 154.366 73.4094C154.852 73.7923 155.427 73.9837 156.091 73.9837C156.901 73.9837 157.684 73.7965 158.443 73.4222C159.72 72.8011 160.359 71.7844 160.359 70.3722V68.5218C160.078 68.7004 159.716 68.8493 159.273 68.9684C158.83 69.0875 158.396 69.1726 157.97 69.2236L156.577 69.4023C155.742 69.5129 155.116 69.6873 154.699 69.9255C153.992 70.3254 153.638 70.9635 153.638 71.8397ZM159.209 67.1945C159.737 67.1265 160.091 66.9053 160.27 66.531C160.372 66.3268 160.423 66.0332 160.423 65.6504C160.423 64.8677 160.142 64.3019 159.58 63.9531C159.026 63.5958 158.23 63.4171 157.19 63.4171C155.989 63.4171 155.137 63.7404 154.635 64.387C154.354 64.7443 154.171 65.2761 154.085 65.9822H151.939C151.981 64.2977 152.526 63.1279 153.574 62.4728C154.631 61.8092 155.853 61.4774 157.241 61.4774C158.851 61.4774 160.159 61.7837 161.164 62.3962C162.161 63.0088 162.659 63.9616 162.659 65.2548V73.1287C162.659 73.3669 162.706 73.5583 162.8 73.7029C162.902 73.8476 163.111 73.9199 163.426 73.9199C163.528 73.9199 163.643 73.9156 163.771 73.9071C163.899 73.8901 164.035 73.8688 164.18 73.8433V75.5406C163.822 75.6427 163.549 75.7065 163.362 75.732C163.175 75.7575 162.919 75.7703 162.595 75.7703C161.803 75.7703 161.228 75.4895 160.87 74.928C160.683 74.6303 160.551 74.2091 160.474 73.6646C160.006 74.2772 159.333 74.8089 158.455 75.2598C157.578 75.7107 156.611 75.9362 155.555 75.9362C154.286 75.9362 153.246 75.5534 152.437 74.7877C151.636 74.0135 151.236 73.0478 151.236 71.8908C151.236 70.6231 151.632 69.6405 152.424 68.9429C153.216 68.2452 154.256 67.8156 155.542 67.654L159.209 67.1945Z" fill="white"/>
<path d="M167.809 71.1889C167.877 71.9546 168.068 72.5416 168.384 72.95C168.963 73.6902 169.968 74.0602 171.399 74.0602C172.251 74.0602 173.001 73.8773 173.648 73.5115C174.295 73.1372 174.619 72.5629 174.619 71.7887C174.619 71.2017 174.359 70.755 173.84 70.4487C173.507 70.2616 172.851 70.0446 171.872 69.7979L170.045 69.3385C168.878 69.0492 168.017 68.7259 167.464 68.3686C166.475 67.7476 165.981 66.8883 165.981 65.7908C165.981 64.4976 166.446 63.4512 167.374 62.6514C168.311 61.8517 169.568 61.4519 171.143 61.4519C173.205 61.4519 174.691 62.0559 175.603 63.264C176.174 64.0297 176.45 64.8549 176.433 65.7397H174.261C174.219 65.2208 174.035 64.7486 173.712 64.3232C173.184 63.7192 172.268 63.4171 170.965 63.4171C170.096 63.4171 169.436 63.583 168.984 63.9148C168.541 64.2466 168.32 64.6848 168.32 65.2293C168.32 65.8248 168.614 66.3012 169.201 66.6586C169.542 66.8713 170.045 67.0584 170.709 67.2201L172.23 67.5902C173.882 67.99 174.99 68.3771 175.552 68.7515C176.446 69.3385 176.893 70.2616 176.893 71.5207C176.893 72.7373 176.429 73.788 175.501 74.6728C174.581 75.5576 173.175 76 171.284 76C169.248 76 167.804 75.5406 166.952 74.6218C166.109 73.6944 165.658 72.5501 165.598 71.1889H167.809Z" fill="white"/>
<path d="M181.289 71.8397C181.289 72.5033 181.532 73.0266 182.017 73.4094C182.503 73.7923 183.078 73.9837 183.742 73.9837C184.551 73.9837 185.335 73.7965 186.093 73.4222C187.371 72.8011 188.01 71.7844 188.01 70.3722V68.5218C187.729 68.7004 187.367 68.8493 186.924 68.9684C186.481 69.0875 186.046 69.1726 185.621 69.2236L184.228 69.4023C183.393 69.5129 182.767 69.6873 182.349 69.9255C181.642 70.3254 181.289 70.9635 181.289 71.8397ZM186.86 67.1945C187.388 67.1265 187.742 66.9053 187.921 66.531C188.023 66.3268 188.074 66.0332 188.074 65.6504C188.074 64.8677 187.793 64.3019 187.231 63.9531C186.677 63.5958 185.88 63.4171 184.841 63.4171C183.64 63.4171 182.788 63.7404 182.286 64.387C182.004 64.7443 181.821 65.2761 181.736 65.9822H179.589C179.632 64.2977 180.177 63.1279 181.225 62.4728C182.281 61.8092 183.504 61.4774 184.892 61.4774C186.502 61.4774 187.81 61.7837 188.815 62.3962C189.812 63.0088 190.31 63.9616 190.31 65.2548V73.1287C190.31 73.3669 190.357 73.5583 190.45 73.7029C190.553 73.8476 190.761 73.9199 191.077 73.9199C191.179 73.9199 191.294 73.9156 191.422 73.9071C191.549 73.8901 191.686 73.8688 191.83 73.8433V75.5406C191.473 75.6427 191.2 75.7065 191.013 75.732C190.825 75.7575 190.57 75.7703 190.246 75.7703C189.454 75.7703 188.879 75.4895 188.521 74.928C188.334 74.6303 188.202 74.2091 188.125 73.6646C187.656 74.2772 186.983 74.8089 186.106 75.2598C185.229 75.7107 184.262 75.9362 183.206 75.9362C181.936 75.9362 180.897 75.5534 180.088 74.7877C179.287 74.0135 178.887 73.0478 178.887 71.8908C178.887 70.6231 179.283 69.6405 180.075 68.9429C180.867 68.2452 181.907 67.8156 183.193 67.654L186.86 67.1945Z" fill="white"/>
<path d="M194.156 56.7301H196.456V75.4768H194.156V56.7301Z" fill="white"/>
<path d="M201.682 71.8397C201.682 72.5033 201.925 73.0266 202.41 73.4094C202.896 73.7923 203.471 73.9837 204.135 73.9837C204.945 73.9837 205.728 73.7965 206.486 73.4222C207.764 72.8011 208.403 71.7844 208.403 70.3722V68.5218C208.122 68.7004 207.76 68.8493 207.317 68.9684C206.874 69.0875 206.44 69.1726 206.014 69.2236L204.621 69.4023C203.786 69.5129 203.16 69.6873 202.743 69.9255C202.036 70.3254 201.682 70.9635 201.682 71.8397ZM207.253 67.1945C207.781 67.1265 208.135 66.9053 208.314 66.531C208.416 66.3268 208.467 66.0332 208.467 65.6504C208.467 64.8677 208.186 64.3019 207.624 63.9531C207.07 63.5958 206.273 63.4171 205.234 63.4171C204.033 63.4171 203.181 63.7404 202.679 64.387C202.398 64.7443 202.214 65.2761 202.129 65.9822H199.983C200.025 64.2977 200.57 63.1279 201.618 62.4728C202.674 61.8092 203.897 61.4774 205.285 61.4774C206.895 61.4774 208.203 61.7837 209.208 62.3962C210.205 63.0088 210.703 63.9616 210.703 65.2548V73.1287C210.703 73.3669 210.75 73.5583 210.844 73.7029C210.946 73.8476 211.154 73.9199 211.47 73.9199C211.572 73.9199 211.687 73.9156 211.815 73.9071C211.942 73.8901 212.079 73.8688 212.224 73.8433V75.5406C211.866 75.6427 211.593 75.7065 211.406 75.732C211.218 75.7575 210.963 75.7703 210.639 75.7703C209.847 75.7703 209.272 75.4895 208.914 74.928C208.727 74.6303 208.595 74.2091 208.518 73.6646C208.05 74.2772 207.377 74.8089 206.499 75.2598C205.622 75.7107 204.655 75.9362 203.599 75.9362C202.329 75.9362 201.29 75.5534 200.481 74.7877C199.68 74.0135 199.28 73.0478 199.28 71.8908C199.28 70.6231 199.676 69.6405 200.468 68.9429C201.26 68.2452 202.3 67.8156 203.586 67.654L207.253 67.1945Z" fill="white"/>
<path d="M214.485 56.6663H216.785V63.6596C217.33 62.9705 217.82 62.4855 218.255 62.2048C218.996 61.7199 219.92 61.4774 221.027 61.4774C223.012 61.4774 224.358 62.1708 225.065 63.5575C225.448 64.3147 225.64 65.3654 225.64 66.7096V75.4768H223.276V66.8627C223.276 65.8588 223.148 65.1229 222.893 64.655C222.475 63.9063 221.692 63.532 220.542 63.532C219.588 63.532 218.723 63.8595 217.948 64.5146C217.173 65.1697 216.785 66.4076 216.785 68.2282V75.4768H214.485V56.6663Z" fill="white"/>
<path d="M229.052 61.8092H231.326V63.7489C231.871 63.0768 232.365 62.5876 232.808 62.2814C233.566 61.7624 234.427 61.5029 235.389 61.5029C236.48 61.5029 237.357 61.7709 238.022 62.3069C238.396 62.6132 238.737 63.0641 239.044 63.6596C239.555 62.9279 240.155 62.3877 240.845 62.0389C241.535 61.6816 242.311 61.5029 243.171 61.5029C245.011 61.5029 246.263 62.1665 246.928 63.4937C247.285 64.2084 247.464 65.1697 247.464 66.3778V75.4768H245.075V65.9822C245.075 65.0719 244.845 64.4466 244.385 64.1063C243.933 63.766 243.38 63.5958 242.724 63.5958C241.821 63.5958 241.041 63.8978 240.385 64.5019C239.738 65.1059 239.414 66.1141 239.414 67.5264V75.4768H237.076V66.5565C237.076 65.6291 236.965 64.9528 236.744 64.5274C236.395 63.8893 235.743 63.5703 234.789 63.5703C233.92 63.5703 233.128 63.9063 232.412 64.5784C231.705 65.2505 231.352 66.4671 231.352 68.2282V75.4768H229.052V61.8092Z" fill="white"/>
<path d="M253.15 61.8092V70.8826C253.15 71.5803 253.261 72.1503 253.482 72.5927C253.891 73.4094 254.654 73.8178 255.77 73.8178C257.371 73.8178 258.462 73.1031 259.041 71.6738C259.356 70.9082 259.514 69.8575 259.514 68.5218V61.8092H261.814V75.4768H259.641L259.667 73.4605C259.369 73.9794 258.998 74.4176 258.555 74.7749C257.678 75.4895 256.613 75.8469 255.361 75.8469C253.41 75.8469 252.081 75.196 251.374 73.8943C250.991 73.1967 250.799 72.2651 250.799 71.0996V61.8092H253.15Z" fill="white"/>
<path d="M272.521 56.6663H274.757V63.4682C275.26 62.8131 275.86 62.3154 276.559 61.9751C277.257 61.6263 278.016 61.4519 278.833 61.4519C280.537 61.4519 281.917 62.0389 282.973 63.213C284.038 64.3785 284.57 66.1013 284.57 68.3814C284.57 70.5423 284.047 72.3374 282.999 73.7667C281.951 75.196 280.499 75.9107 278.642 75.9107C277.602 75.9107 276.725 75.6597 276.009 75.1577C275.584 74.86 275.128 74.3835 274.642 73.7285V75.4768H272.521V56.6663ZM278.501 73.8816C279.745 73.8816 280.673 73.3881 281.287 72.4013C281.908 71.4144 282.219 70.1127 282.219 68.4962C282.219 67.0584 281.908 65.8673 281.287 64.923C280.673 63.9786 279.766 63.5065 278.565 63.5065C277.517 63.5065 276.597 63.8936 275.805 64.6678C275.021 65.442 274.629 66.7181 274.629 68.4962C274.629 69.7809 274.791 70.8231 275.115 71.6228C275.72 73.1287 276.849 73.8816 278.501 73.8816Z" fill="white"/>
<path d="M292.965 61.5029C293.936 61.5029 294.878 61.7326 295.789 62.192C296.701 62.6429 297.395 63.23 297.872 63.9531C298.332 64.6422 298.639 65.4462 298.792 66.3651C298.928 66.9946 298.996 67.9985 298.996 69.3768H288.966C289.009 70.7635 289.337 71.878 289.95 72.7203C290.563 73.554 291.513 73.9709 292.799 73.9709C294 73.9709 294.959 73.5753 295.674 72.7841C296.083 72.3247 296.373 71.793 296.543 71.1889H298.805C298.745 71.6909 298.545 72.2524 298.204 72.8734C297.872 73.486 297.497 73.9879 297.08 74.3793C296.381 75.0599 295.517 75.5193 294.486 75.7575C293.932 75.8937 293.306 75.9617 292.608 75.9617C290.904 75.9617 289.46 75.3449 288.276 74.1113C287.092 72.8692 286.5 71.1336 286.5 68.9046C286.5 66.7096 287.096 64.9273 288.289 63.5575C289.481 62.1878 291.04 61.5029 292.965 61.5029ZM296.633 67.5519C296.539 66.5565 296.322 65.761 295.981 65.1655C295.35 64.0595 294.298 63.5065 292.825 63.5065C291.769 63.5065 290.883 63.8893 290.167 64.655C289.452 65.4122 289.072 66.3778 289.03 67.5519H296.633Z" fill="white"/>
<path d="M301.897 61.8092H304.082V64.1701C304.261 63.7107 304.699 63.1534 305.398 62.4983C306.096 61.8347 306.901 61.5029 307.813 61.5029C307.856 61.5029 307.928 61.5072 308.03 61.5157C308.132 61.5242 308.307 61.5412 308.554 61.5667V63.9914C308.418 63.9659 308.29 63.9489 308.171 63.9404C308.06 63.9319 307.936 63.9276 307.8 63.9276C306.642 63.9276 305.751 64.3019 305.13 65.0506C304.508 65.7908 304.197 66.6458 304.197 67.6157V75.4768H301.897V61.8092Z" fill="white"/>
<path d="M311.915 71.1889C311.983 71.9546 312.174 72.5416 312.49 72.95C313.069 73.6902 314.074 74.0602 315.505 74.0602C316.357 74.0602 317.107 73.8773 317.754 73.5115C318.401 73.1372 318.725 72.5629 318.725 71.7887C318.725 71.2017 318.465 70.755 317.946 70.4487C317.613 70.2616 316.957 70.0446 315.978 69.7979L314.151 69.3385C312.984 69.0492 312.123 68.7259 311.57 68.3686C310.581 67.7476 310.087 66.8883 310.087 65.7908C310.087 64.4976 310.552 63.4512 311.48 62.6514C312.417 61.8517 313.674 61.4519 315.25 61.4519C317.311 61.4519 318.797 62.0559 319.709 63.264C320.28 64.0297 320.556 64.8549 320.539 65.7397H318.367C318.325 65.2208 318.142 64.7486 317.818 64.3232C317.29 63.7192 316.374 63.4171 315.071 63.4171C314.202 63.4171 313.542 63.583 313.09 63.9148C312.647 64.2466 312.426 64.6848 312.426 65.2293C312.426 65.8248 312.72 66.3012 313.307 66.6586C313.648 66.8713 314.151 67.0584 314.815 67.2201L316.336 67.5902C317.988 67.99 319.096 68.3771 319.658 68.7515C320.552 69.3385 320.999 70.2616 320.999 71.5207C320.999 72.7373 320.535 73.788 319.607 74.6728C318.687 75.5576 317.281 76 315.39 76C313.354 76 311.91 75.5406 311.058 74.6218C310.215 73.6944 309.764 72.5501 309.704 71.1889H311.915Z" fill="white"/>
<path d="M325.395 71.8397C325.395 72.5033 325.638 73.0266 326.123 73.4094C326.609 73.7923 327.184 73.9837 327.848 73.9837C328.658 73.9837 329.441 73.7965 330.199 73.4222C331.477 72.8011 332.116 71.7844 332.116 70.3722V68.5218C331.835 68.7004 331.473 68.8493 331.03 68.9684C330.587 69.0875 330.152 69.1726 329.727 69.2236L328.334 69.4023C327.499 69.5129 326.873 69.6873 326.456 69.9255C325.748 70.3254 325.395 70.9635 325.395 71.8397ZM330.966 67.1945C331.494 67.1265 331.848 66.9053 332.027 66.531C332.129 66.3268 332.18 66.0332 332.18 65.6504C332.18 64.8677 331.899 64.3019 331.337 63.9531C330.783 63.5958 329.986 63.4171 328.947 63.4171C327.746 63.4171 326.894 63.7404 326.392 64.387C326.111 64.7443 325.927 65.2761 325.842 65.9822H323.696C323.738 64.2977 324.283 63.1279 325.331 62.4728C326.387 61.8092 327.61 61.4774 328.998 61.4774C330.608 61.4774 331.916 61.7837 332.921 62.3962C333.918 63.0088 334.416 63.9616 334.416 65.2548V73.1287C334.416 73.3669 334.463 73.5583 334.557 73.7029C334.659 73.8476 334.867 73.9199 335.183 73.9199C335.285 73.9199 335.4 73.9156 335.528 73.9071C335.655 73.8901 335.792 73.8688 335.936 73.8433V75.5406C335.579 75.6427 335.306 75.7065 335.119 75.732C334.931 75.7575 334.676 75.7703 334.352 75.7703C333.56 75.7703 332.985 75.4895 332.627 74.928C332.44 74.6303 332.308 74.2091 332.231 73.6646C331.762 74.2772 331.09 74.8089 330.212 75.2598C329.335 75.7107 328.368 75.9362 327.312 75.9362C326.042 75.9362 325.003 75.5534 324.194 74.7877C323.393 74.0135 322.993 73.0478 322.993 71.8908C322.993 70.6231 323.389 69.6405 324.181 68.9429C324.973 68.2452 326.013 67.8156 327.299 67.654L330.966 67.1945Z" fill="white"/>
<path d="M338.198 61.8092H340.473V63.7489C341.018 63.0768 341.512 62.5876 341.955 62.2814C342.713 61.7624 343.573 61.5029 344.536 61.5029C345.626 61.5029 346.504 61.7709 347.168 62.3069C347.543 62.6132 347.884 63.0641 348.19 63.6596C348.701 62.9279 349.302 62.3877 349.992 62.0389C350.682 61.6816 351.457 61.5029 352.317 61.5029C354.157 61.5029 355.41 62.1665 356.074 63.4937C356.432 64.2084 356.611 65.1697 356.611 66.3778V75.4768H354.221V65.9822C354.221 65.0719 353.991 64.4466 353.531 64.1063C353.08 63.766 352.526 63.5958 351.87 63.5958C350.967 63.5958 350.188 63.8978 349.532 64.5019C348.884 65.1059 348.561 66.1141 348.561 67.5264V75.4768H346.222V66.5565C346.222 65.6291 346.112 64.9528 345.89 64.5274C345.541 63.8893 344.889 63.5703 343.935 63.5703C343.066 63.5703 342.274 63.9063 341.559 64.5784C340.852 65.2505 340.498 66.4671 340.498 68.2282V75.4768H338.198V61.8092Z" fill="white"/>
<path d="M361.76 71.8397C361.76 72.5033 362.003 73.0266 362.488 73.4094C362.974 73.7923 363.549 73.9837 364.213 73.9837C365.023 73.9837 365.806 73.7965 366.564 73.4222C367.842 72.8011 368.481 71.7844 368.481 70.3722V68.5218C368.2 68.7004 367.838 68.8493 367.395 68.9684C366.952 69.0875 366.518 69.1726 366.092 69.2236L364.699 69.4023C363.864 69.5129 363.238 69.6873 362.821 69.9255C362.114 70.3254 361.76 70.9635 361.76 71.8397ZM367.331 67.1945C367.859 67.1265 368.213 66.9053 368.392 66.531C368.494 66.3268 368.545 66.0332 368.545 65.6504C368.545 64.8677 368.264 64.3019 367.702 63.9531C367.148 63.5958 366.352 63.4171 365.312 63.4171C364.111 63.4171 363.259 63.7404 362.757 64.387C362.476 64.7443 362.292 65.2761 362.207 65.9822H360.061C360.103 64.2977 360.648 63.1279 361.696 62.4728C362.752 61.8092 363.975 61.4774 365.363 61.4774C366.973 61.4774 368.281 61.7837 369.286 62.3962C370.283 63.0088 370.781 63.9616 370.781 65.2548V73.1287C370.781 73.3669 370.828 73.5583 370.922 73.7029C371.024 73.8476 371.233 73.9199 371.548 73.9199C371.65 73.9199 371.765 73.9156 371.893 73.9071C372.021 73.8901 372.157 73.8688 372.302 73.8433V75.5406C371.944 75.6427 371.671 75.7065 371.484 75.732C371.296 75.7575 371.041 75.7703 370.717 75.7703C369.925 75.7703 369.35 75.4895 368.992 74.928C368.805 74.6303 368.673 74.2091 368.596 73.6646C368.128 74.2772 367.455 74.8089 366.577 75.2598C365.7 75.7107 364.733 75.9362 363.677 75.9362C362.407 75.9362 361.368 75.5534 360.559 74.7877C359.758 74.0135 359.358 73.0478 359.358 71.8908C359.358 70.6231 359.754 69.6405 360.546 68.9429C361.338 68.2452 362.378 67.8156 363.664 67.654L367.331 67.1945Z" fill="white"/>
<path d="M382.128 75.4768V56.6663H386.025V63.8383H393.385V56.6663H397.295V75.4768H393.385V67.0797H386.025V75.4768H382.128Z" fill="white"/>
<path d="M408.45 68.7132C408.22 68.8578 407.985 68.9769 407.747 69.0705C407.517 69.1556 407.197 69.2364 406.788 69.313L405.971 69.4661C405.204 69.6022 404.655 69.7681 404.322 69.9638C403.76 70.2956 403.479 70.8103 403.479 71.5079C403.479 72.129 403.649 72.5799 403.99 72.8607C404.339 73.1329 404.761 73.269 405.255 73.269C406.039 73.269 406.759 73.0393 407.415 72.5799C408.079 72.1205 408.424 71.2825 408.45 70.0659V68.7132ZM406.239 67.0159C406.912 66.9308 407.393 66.8245 407.683 66.6968C408.202 66.4756 408.462 66.1311 408.462 65.6632C408.462 65.0931 408.262 64.7018 407.862 64.4891C407.47 64.2679 406.891 64.1573 406.124 64.1573C405.264 64.1573 404.655 64.37 404.297 64.7954C404.041 65.1102 403.871 65.5356 403.786 66.0715H400.272C400.349 64.8549 400.689 63.8553 401.294 63.0726C402.257 61.8475 403.909 61.2349 406.252 61.2349C407.777 61.2349 409.131 61.5369 410.315 62.141C411.499 62.745 412.091 63.8851 412.091 65.5611V71.9418C412.091 72.3842 412.1 72.9202 412.117 73.5498C412.142 74.0262 412.215 74.3495 412.334 74.5197C412.453 74.6898 412.632 74.8302 412.871 74.9408V75.4768H408.91C408.799 75.196 408.722 74.9323 408.68 74.6856C408.637 74.4388 408.603 74.1581 408.577 73.8433C408.075 74.3878 407.495 74.8515 406.84 75.2343C406.056 75.6852 405.17 75.9107 404.182 75.9107C402.921 75.9107 401.878 75.5534 401.051 74.8387C400.233 74.1155 399.825 73.0946 399.825 71.7759C399.825 70.0659 400.485 68.828 401.805 68.0623C402.529 67.6455 403.594 67.3477 405 67.169L406.239 67.0159Z" fill="white"/>
<path d="M419.055 75.4768H415.413V56.6663H419.055V75.4768Z" fill="white"/>
<path d="M428.868 72.9117C429.933 72.9117 430.751 72.5331 431.321 71.7759C431.892 71.0188 432.178 69.9425 432.178 68.5473C432.178 67.152 431.892 66.08 431.321 65.3314C430.751 64.5742 429.933 64.1956 428.868 64.1956C427.803 64.1956 426.981 64.5742 426.402 65.3314C425.831 66.08 425.546 67.152 425.546 68.5473C425.546 69.9425 425.831 71.0188 426.402 71.7759C426.981 72.5331 427.803 72.9117 428.868 72.9117ZM435.998 68.5473C435.998 70.5891 435.41 72.3374 434.235 73.7923C433.059 75.2386 431.275 75.9617 428.881 75.9617C426.487 75.9617 424.703 75.2386 423.527 73.7923C422.352 72.3374 421.764 70.5891 421.764 68.5473C421.764 66.5395 422.352 64.7996 423.527 63.3278C424.703 61.856 426.487 61.1201 428.881 61.1201C431.275 61.1201 433.059 61.856 434.235 63.3278C435.41 64.7996 435.998 66.5395 435.998 68.5473Z" fill="white"/>
<path d="M442.732 59.9332V64.0807H447.357C448.184 64.0807 448.852 63.9276 449.363 63.6213C449.883 63.3065 450.143 62.7535 450.143 61.9623C450.143 61.086 449.802 60.5075 449.121 60.2268C448.533 60.0311 447.783 59.9332 446.872 59.9332H442.732ZM442.732 67.1945V72.2098H447.357C448.184 72.2098 448.827 72.0992 449.287 71.878C450.122 71.4697 450.539 70.687 450.539 69.5299C450.539 68.5515 450.134 67.8794 449.325 67.5136C448.874 67.3094 448.239 67.2031 447.421 67.1945H442.732ZM448.124 56.6663C450.433 56.7003 452.068 57.3682 453.031 58.6698C453.61 59.4696 453.9 60.4267 453.9 61.5412C453.9 62.6897 453.61 63.6128 453.031 64.3104C452.707 64.7018 452.23 65.0591 451.6 65.3824C452.562 65.7312 453.286 66.2842 453.772 67.0414C454.266 67.7986 454.513 68.7174 454.513 69.7979C454.513 70.9124 454.232 71.9121 453.67 72.7969C453.312 73.3839 452.865 73.8773 452.328 74.2772C451.723 74.7366 451.008 75.0514 450.181 75.2215C449.363 75.3917 448.473 75.4768 447.511 75.4768H438.975V56.6663H448.124Z" fill="white"/>
<path d="M461.272 59.9077H457.579V56.5514H461.272V59.9077ZM457.579 61.5667H461.272V75.4768H457.579V61.5667Z" fill="white"/>
<path d="M469.948 61.2349C470.792 61.2349 471.541 61.4221 472.197 61.7964C472.853 62.1623 473.385 62.6727 473.794 63.3278V56.6918H477.487V75.4768H473.948V73.5498C473.428 74.375 472.836 74.9748 472.172 75.3492C471.507 75.7235 470.681 75.9107 469.693 75.9107C468.066 75.9107 466.694 75.2556 465.578 73.9454C464.471 72.6267 463.917 70.9379 463.917 68.8791C463.917 66.5054 464.462 64.638 465.553 63.2768C466.652 61.9155 468.117 61.2349 469.948 61.2349ZM470.74 72.8479C471.771 72.8479 472.555 72.4651 473.092 71.6994C473.628 70.9337 473.897 69.9425 473.897 68.7259C473.897 67.0244 473.466 65.8078 472.606 65.0761C472.078 64.6337 471.464 64.4125 470.766 64.4125C469.701 64.4125 468.917 64.8167 468.415 65.6249C467.921 66.4246 467.674 67.42 467.674 68.6111C467.674 69.8957 467.925 70.9252 468.428 71.6994C468.939 72.4651 469.71 72.8479 470.74 72.8479Z" fill="white"/>
<path d="M488.489 68.7132C488.259 68.8578 488.024 68.9769 487.786 69.0705C487.556 69.1556 487.236 69.2364 486.827 69.313L486.01 69.4661C485.243 69.6022 484.694 69.7681 484.361 69.9638C483.799 70.2956 483.518 70.8103 483.518 71.5079C483.518 72.129 483.688 72.5799 484.029 72.8607C484.378 73.1329 484.8 73.269 485.294 73.269C486.078 73.269 486.798 73.0393 487.454 72.5799C488.118 72.1205 488.463 71.2825 488.489 70.0659V68.7132ZM486.278 67.0159C486.951 66.9308 487.432 66.8245 487.722 66.6968C488.242 66.4756 488.501 66.1311 488.501 65.6632C488.501 65.0931 488.301 64.7018 487.901 64.4891C487.509 64.2679 486.93 64.1573 486.163 64.1573C485.303 64.1573 484.694 64.37 484.336 64.7954C484.08 65.1102 483.91 65.5356 483.825 66.0715H480.311C480.388 64.8549 480.728 63.8553 481.333 63.0726C482.296 61.8475 483.948 61.2349 486.291 61.2349C487.816 61.2349 489.17 61.5369 490.354 62.141C491.538 62.745 492.13 63.8851 492.13 65.5611V71.9418C492.13 72.3842 492.139 72.9202 492.156 73.5498C492.181 74.0262 492.254 74.3495 492.373 74.5197C492.492 74.6898 492.671 74.8302 492.91 74.9408V75.4768H488.949C488.838 75.196 488.761 74.9323 488.719 74.6856C488.676 74.4388 488.642 74.1581 488.616 73.8433C488.114 74.3878 487.534 74.8515 486.879 75.2343C486.095 75.6852 485.209 75.9107 484.221 75.9107C482.96 75.9107 481.917 75.5534 481.09 74.8387C480.273 74.1155 479.864 73.0946 479.864 71.7759C479.864 70.0659 480.524 68.828 481.844 68.0623C482.568 67.6455 483.633 67.3477 485.039 67.169L486.278 67.0159Z" fill="white"/>
<path d="M503.093 61.2349C504.533 61.2349 505.709 61.6135 506.62 62.3707C507.54 63.1194 508 64.3657 508 66.1098V75.4768H504.269V67.0159C504.269 66.2842 504.171 65.7227 503.975 65.3314C503.617 64.6167 502.936 64.2594 501.931 64.2594C500.695 64.2594 499.848 64.7826 499.388 65.8291C499.149 66.3821 499.03 67.0882 499.03 67.9475V75.4768H495.401V61.5922H498.915V63.6213C499.384 62.9067 499.827 62.392 500.244 62.0772C500.994 61.5157 501.943 61.2349 503.093 61.2349Z" fill="white"/>
</svg>
